<mxfile host="app.diagrams.net" modified="2021-07-31T04:08:48.111Z" agent="5.0 (Windows NT 10.0; Win64; x64) AppleWebKit/537.36 (KHTML, like Gecko) Chrome/92.0.4515.107 Safari/537.36" etag="7Os9WGvavMeIYZQV_XuD" version="14.9.3" type="github">
  <diagram name="Page-1" id="5d7acffa-a066-3a61-03fe-96351882024d">
    <mxGraphModel dx="3176" dy="1286" grid="0" gridSize="10" guides="1" tooltips="1" connect="1" arrows="1" fold="1" page="1" pageScale="1" pageWidth="1100" pageHeight="850" background="#ffffff" math="0" shadow="0">
      <root>
        <mxCell id="0" />
        <mxCell id="1" parent="0" />
        <mxCell id="zZnXeD6LMVea68qLVW7M-81" value="" style="rounded=0;whiteSpace=wrap;html=1;fontFamily=Helvetica;fontSize=17;dashed=1;fillColor=#dae8fc;strokeColor=#6c8ebf;" vertex="1" parent="1">
          <mxGeometry x="444" y="143" width="643" height="673" as="geometry" />
        </mxCell>
        <mxCell id="zZnXeD6LMVea68qLVW7M-68" value="" style="rounded=0;whiteSpace=wrap;html=1;fontFamily=Helvetica;fontSize=17;dashed=1;fillColor=#f8cecc;strokeColor=#b85450;" vertex="1" parent="1">
          <mxGeometry x="-249" y="143" width="643" height="673" as="geometry" />
        </mxCell>
        <mxCell id="zZnXeD6LMVea68qLVW7M-42" style="edgeStyle=none;rounded=0;orthogonalLoop=1;jettySize=auto;html=1;exitX=0;exitY=0.5;exitDx=0;exitDy=0;fontFamily=Helvetica;fontSize=17;startArrow=classic;startFill=1;entryX=0.9;entryY=0.2;entryDx=0;entryDy=0;entryPerimeter=0;" edge="1" parent="1" source="zZnXeD6LMVea68qLVW7M-35" target="zZnXeD6LMVea68qLVW7M-22">
          <mxGeometry relative="1" as="geometry">
            <mxPoint x="600" y="560" as="targetPoint" />
          </mxGeometry>
        </mxCell>
        <mxCell id="zZnXeD6LMVea68qLVW7M-43" style="edgeStyle=none;rounded=0;orthogonalLoop=1;jettySize=auto;html=1;exitX=0;exitY=0.5;exitDx=0;exitDy=0;entryX=0.72;entryY=0.99;entryDx=0;entryDy=0;entryPerimeter=0;fontFamily=Helvetica;fontSize=17;startArrow=classic;startFill=1;" edge="1" parent="1" source="zZnXeD6LMVea68qLVW7M-35" target="zZnXeD6LMVea68qLVW7M-15">
          <mxGeometry relative="1" as="geometry" />
        </mxCell>
        <mxCell id="zZnXeD6LMVea68qLVW7M-35" value="" style="rounded=1;whiteSpace=wrap;html=1;" vertex="1" parent="1">
          <mxGeometry x="830" y="400" width="220" height="175" as="geometry" />
        </mxCell>
        <mxCell id="zZnXeD6LMVea68qLVW7M-14" value="" style="rounded=1;whiteSpace=wrap;html=1;" vertex="1" parent="1">
          <mxGeometry x="830" y="175" width="220" height="175" as="geometry" />
        </mxCell>
        <mxCell id="zZnXeD6LMVea68qLVW7M-32" style="rounded=0;orthogonalLoop=1;jettySize=auto;html=1;exitX=0;exitY=0.5;exitDx=0;exitDy=0;entryX=0.995;entryY=0.63;entryDx=0;entryDy=0;entryPerimeter=0;fontFamily=Helvetica;fontSize=17;startArrow=classic;startFill=1;" edge="1" parent="1" source="zZnXeD6LMVea68qLVW7M-2" target="zZnXeD6LMVea68qLVW7M-1">
          <mxGeometry relative="1" as="geometry" />
        </mxCell>
        <mxCell id="zZnXeD6LMVea68qLVW7M-2" value="" style="rounded=1;whiteSpace=wrap;html=1;" vertex="1" parent="1">
          <mxGeometry x="460" y="180" width="220" height="220" as="geometry" />
        </mxCell>
        <mxCell id="zZnXeD6LMVea68qLVW7M-3" value="SNSRPI BACKEND" style="text;html=1;strokeColor=none;fillColor=none;align=center;verticalAlign=middle;whiteSpace=wrap;rounded=0;fontFamily=Helvetica;fontSize=17;" vertex="1" parent="1">
          <mxGeometry x="485" y="191" width="180" height="20" as="geometry" />
        </mxCell>
        <mxCell id="zZnXeD6LMVea68qLVW7M-5" value="" style="shape=image;html=1;verticalAlign=top;verticalLabelPosition=bottom;labelBackgroundColor=#ffffff;imageAspect=0;aspect=fixed;image=https://cdn4.iconfinder.com/data/icons/logos-and-brands/512/233_Node_Js_logo-128.png" vertex="1" parent="1">
          <mxGeometry x="530" y="240" width="90" height="90" as="geometry" />
        </mxCell>
        <mxCell id="zZnXeD6LMVea68qLVW7M-6" value="Node JS - Express Web Server for Backend" style="text;html=1;strokeColor=none;fillColor=none;align=center;verticalAlign=middle;whiteSpace=wrap;rounded=0;" vertex="1" parent="1">
          <mxGeometry x="500" y="360" width="150" height="20" as="geometry" />
        </mxCell>
        <mxCell id="zZnXeD6LMVea68qLVW7M-15" value="" style="html=1;dashed=0;whitespace=wrap;fillColor=#2875E2;strokeColor=#ffffff;points=[[0.005,0.63,0],[0.1,0.2,0],[0.9,0.2,0],[0.5,0,0],[0.995,0.63,0],[0.72,0.99,0],[0.5,1,0],[0.28,0.99,0]];shape=mxgraph.kubernetes.icon;prIcon=api" vertex="1" parent="1">
          <mxGeometry x="640" y="255" width="90" height="60" as="geometry" />
        </mxCell>
        <mxCell id="zZnXeD6LMVea68qLVW7M-19" value="SNSRPI FRONTEND" style="text;html=1;strokeColor=none;fillColor=none;align=center;verticalAlign=middle;whiteSpace=wrap;rounded=0;fontSize=17;" vertex="1" parent="1">
          <mxGeometry x="852.5" y="190" width="175" height="20" as="geometry" />
        </mxCell>
        <mxCell id="zZnXeD6LMVea68qLVW7M-20" value="" style="shape=image;html=1;verticalAlign=top;verticalLabelPosition=bottom;labelBackgroundColor=#ffffff;imageAspect=0;aspect=fixed;image=https://cdn0.iconfinder.com/data/icons/logos-brands-in-colors/128/react-128.png" vertex="1" parent="1">
          <mxGeometry x="909" y="229" width="71.5" height="71.5" as="geometry" />
        </mxCell>
        <mxCell id="zZnXeD6LMVea68qLVW7M-29" value="" style="endArrow=classic;startArrow=classic;html=1;fontFamily=Helvetica;fontSize=17;exitX=0.9;exitY=0.2;exitDx=0;exitDy=0;exitPerimeter=0;entryX=0.5;entryY=1;entryDx=0;entryDy=0;" edge="1" parent="1" source="zZnXeD6LMVea68qLVW7M-22" target="zZnXeD6LMVea68qLVW7M-2">
          <mxGeometry width="50" height="50" relative="1" as="geometry">
            <mxPoint x="680" y="490" as="sourcePoint" />
            <mxPoint x="730" y="440" as="targetPoint" />
          </mxGeometry>
        </mxCell>
        <mxCell id="zZnXeD6LMVea68qLVW7M-30" value="" style="endArrow=classic;startArrow=classic;html=1;fontFamily=Helvetica;fontSize=17;exitX=0;exitY=0.535;exitDx=0;exitDy=0;exitPerimeter=0;entryX=0.995;entryY=0.63;entryDx=0;entryDy=0;entryPerimeter=0;" edge="1" parent="1" source="zZnXeD6LMVea68qLVW7M-14" target="zZnXeD6LMVea68qLVW7M-15">
          <mxGeometry width="50" height="50" relative="1" as="geometry">
            <mxPoint x="750" y="470" as="sourcePoint" />
            <mxPoint x="752" y="330" as="targetPoint" />
          </mxGeometry>
        </mxCell>
        <mxCell id="zZnXeD6LMVea68qLVW7M-36" value="" style="shape=image;html=1;verticalAlign=top;verticalLabelPosition=bottom;labelBackgroundColor=#ffffff;imageAspect=0;aspect=fixed;image=https://cdn0.iconfinder.com/data/icons/logos-brands-in-colors/128/react-128.png" vertex="1" parent="1">
          <mxGeometry x="960" y="449.75" width="67.5" height="67.5" as="geometry" />
        </mxCell>
        <mxCell id="zZnXeD6LMVea68qLVW7M-37" value="IOS FRONTEND" style="text;html=1;strokeColor=none;fillColor=none;align=center;verticalAlign=middle;whiteSpace=wrap;rounded=0;fontSize=17;" vertex="1" parent="1">
          <mxGeometry x="852.5" y="405" width="175" height="20" as="geometry" />
        </mxCell>
        <mxCell id="zZnXeD6LMVea68qLVW7M-38" value="React Native -" style="text;html=1;strokeColor=none;fillColor=none;align=center;verticalAlign=middle;whiteSpace=wrap;rounded=0;" vertex="1" parent="1">
          <mxGeometry x="865" y="550" width="150" height="20" as="geometry" />
        </mxCell>
        <mxCell id="zZnXeD6LMVea68qLVW7M-47" value="" style="html=1;verticalLabelPosition=bottom;align=center;labelBackgroundColor=#ffffff;verticalAlign=top;strokeWidth=2;strokeColor=#0080F0;shadow=0;dashed=0;shape=mxgraph.ios7.icons.bluetooth;pointerEvents=1;fontFamily=Helvetica;fontSize=17;" vertex="1" parent="1">
          <mxGeometry x="590" y="504" width="15" height="28.799999999999997" as="geometry" />
        </mxCell>
        <mxCell id="zZnXeD6LMVea68qLVW7M-49" value="" style="group" vertex="1" connectable="0" parent="1">
          <mxGeometry x="125" y="495" width="243" height="277" as="geometry" />
        </mxCell>
        <mxCell id="zZnXeD6LMVea68qLVW7M-40" value="" style="group" vertex="1" connectable="0" parent="zZnXeD6LMVea68qLVW7M-49">
          <mxGeometry y="30" width="243" height="247" as="geometry" />
        </mxCell>
        <mxCell id="zZnXeD6LMVea68qLVW7M-16" value="" style="rounded=1;whiteSpace=wrap;html=1;" vertex="1" parent="zZnXeD6LMVea68qLVW7M-40">
          <mxGeometry width="220" height="220" as="geometry" />
        </mxCell>
        <mxCell id="zZnXeD6LMVea68qLVW7M-21" value="SNSRPI" style="text;html=1;strokeColor=none;fillColor=none;align=center;verticalAlign=middle;whiteSpace=wrap;rounded=0;fontFamily=Helvetica;fontSize=17;" vertex="1" parent="zZnXeD6LMVea68qLVW7M-40">
          <mxGeometry x="20" y="35" width="180" height="20" as="geometry" />
        </mxCell>
        <mxCell id="zZnXeD6LMVea68qLVW7M-33" value="" style="shape=image;html=1;verticalAlign=top;verticalLabelPosition=bottom;labelBackgroundColor=#ffffff;imageAspect=0;aspect=fixed;image=https://cdn1.iconfinder.com/data/icons/Momentum_GlossyEntireSet/32/c.png;fontFamily=Helvetica;fontSize=17;" vertex="1" parent="zZnXeD6LMVea68qLVW7M-40">
          <mxGeometry x="40" y="85" width="50" height="50" as="geometry" />
        </mxCell>
        <mxCell id="zZnXeD6LMVea68qLVW7M-44" value="MONO App&lt;br&gt;" style="text;html=1;strokeColor=none;fillColor=none;align=center;verticalAlign=middle;whiteSpace=wrap;rounded=0;" vertex="1" parent="zZnXeD6LMVea68qLVW7M-40">
          <mxGeometry x="35" y="190" width="150" height="20" as="geometry" />
        </mxCell>
        <mxCell id="zZnXeD6LMVea68qLVW7M-59" value="" style="shape=image;html=1;verticalAlign=top;verticalLabelPosition=bottom;labelBackgroundColor=#ffffff;imageAspect=0;aspect=fixed;image=https://cdn3.iconfinder.com/data/icons/social-media-2169/24/social_media_social_media_logo_docker-128.png;fontFamily=Helvetica;fontSize=17;" vertex="1" parent="zZnXeD6LMVea68qLVW7M-40">
          <mxGeometry x="172" y="176" width="71" height="71" as="geometry" />
        </mxCell>
        <mxCell id="zZnXeD6LMVea68qLVW7M-22" value="" style="html=1;dashed=0;whitespace=wrap;fillColor=#2875E2;strokeColor=#ffffff;points=[[0.005,0.63,0],[0.1,0.2,0],[0.9,0.2,0],[0.5,0,0],[0.995,0.63,0],[0.72,0.99,0],[0.5,1,0],[0.28,0.99,0]];shape=mxgraph.kubernetes.icon;prIcon=api" vertex="1" parent="zZnXeD6LMVea68qLVW7M-49">
          <mxGeometry x="72" width="76" height="60" as="geometry" />
        </mxCell>
        <mxCell id="zZnXeD6LMVea68qLVW7M-50" value="" style="group" vertex="1" connectable="0" parent="1">
          <mxGeometry x="96" y="178" width="259" height="239" as="geometry" />
        </mxCell>
        <mxCell id="zZnXeD6LMVea68qLVW7M-46" value="" style="group" vertex="1" connectable="0" parent="zZnXeD6LMVea68qLVW7M-50">
          <mxGeometry width="238" height="239" as="geometry" />
        </mxCell>
        <mxCell id="zZnXeD6LMVea68qLVW7M-17" value="" style="rounded=1;whiteSpace=wrap;html=1;" vertex="1" parent="zZnXeD6LMVea68qLVW7M-46">
          <mxGeometry width="220" height="220" as="geometry" />
        </mxCell>
        <mxCell id="zZnXeD6LMVea68qLVW7M-4" value="" style="shape=image;html=1;verticalAlign=top;verticalLabelPosition=bottom;labelBackgroundColor=#ffffff;imageAspect=0;aspect=fixed;image=https://cdn4.iconfinder.com/data/icons/logos-and-brands/512/267_Python_logo-128.png" vertex="1" parent="zZnXeD6LMVea68qLVW7M-46">
          <mxGeometry x="61" y="70" width="80" height="80" as="geometry" />
        </mxCell>
        <mxCell id="zZnXeD6LMVea68qLVW7M-23" value="DATA PROCESSING" style="text;html=1;strokeColor=none;fillColor=none;align=center;verticalAlign=middle;whiteSpace=wrap;rounded=0;fontSize=17;" vertex="1" parent="zZnXeD6LMVea68qLVW7M-46">
          <mxGeometry x="25" y="40" width="175" height="20" as="geometry" />
        </mxCell>
        <mxCell id="zZnXeD6LMVea68qLVW7M-34" value="HUG API" style="text;html=1;strokeColor=none;fillColor=none;align=center;verticalAlign=middle;whiteSpace=wrap;rounded=0;" vertex="1" parent="zZnXeD6LMVea68qLVW7M-46">
          <mxGeometry x="37.5" y="180" width="150" height="20" as="geometry" />
        </mxCell>
        <mxCell id="zZnXeD6LMVea68qLVW7M-62" value="" style="shape=image;html=1;verticalAlign=top;verticalLabelPosition=bottom;labelBackgroundColor=#ffffff;imageAspect=0;aspect=fixed;image=https://cdn3.iconfinder.com/data/icons/social-media-2169/24/social_media_social_media_logo_docker-128.png;fontFamily=Helvetica;fontSize=17;" vertex="1" parent="zZnXeD6LMVea68qLVW7M-46">
          <mxGeometry x="175" y="176" width="63" height="63" as="geometry" />
        </mxCell>
        <mxCell id="zZnXeD6LMVea68qLVW7M-1" value="" style="html=1;dashed=0;whitespace=wrap;fillColor=#2875E2;strokeColor=#ffffff;points=[[0.005,0.63,0],[0.1,0.2,0],[0.9,0.2,0],[0.5,0,0],[0.995,0.63,0],[0.72,0.99,0],[0.5,1,0],[0.28,0.99,0]];shape=mxgraph.kubernetes.icon;prIcon=api" vertex="1" parent="zZnXeD6LMVea68qLVW7M-50">
          <mxGeometry x="183" y="69" width="76" height="60" as="geometry" />
        </mxCell>
        <mxCell id="zZnXeD6LMVea68qLVW7M-45" value="ASP.NET API&lt;br&gt;" style="text;html=1;strokeColor=none;fillColor=none;align=center;verticalAlign=middle;whiteSpace=wrap;rounded=0;" vertex="1" parent="1">
          <mxGeometry x="164" y="695" width="150" height="20" as="geometry" />
        </mxCell>
        <mxCell id="zZnXeD6LMVea68qLVW7M-51" value="" style="group" vertex="1" connectable="0" parent="1">
          <mxGeometry x="-194" y="359.5" width="194" height="256" as="geometry" />
        </mxCell>
        <mxCell id="zZnXeD6LMVea68qLVW7M-53" value="" style="rounded=1;whiteSpace=wrap;html=1;" vertex="1" parent="zZnXeD6LMVea68qLVW7M-51">
          <mxGeometry x="5.992277992277992" y="15" width="164.78764478764478" height="220" as="geometry" />
        </mxCell>
        <mxCell id="zZnXeD6LMVea68qLVW7M-55" value="Docker Volumes" style="text;html=1;strokeColor=none;fillColor=none;align=center;verticalAlign=middle;whiteSpace=wrap;rounded=0;fontSize=17;" vertex="1" parent="zZnXeD6LMVea68qLVW7M-51">
          <mxGeometry x="20.972972972972972" y="30" width="131.08108108108107" height="20" as="geometry" />
        </mxCell>
        <mxCell id="zZnXeD6LMVea68qLVW7M-56" value="File system" style="text;html=1;strokeColor=none;fillColor=none;align=center;verticalAlign=middle;whiteSpace=wrap;rounded=0;" vertex="1" parent="zZnXeD6LMVea68qLVW7M-51">
          <mxGeometry x="34.08108108108108" y="195" width="112.35521235521234" height="20" as="geometry" />
        </mxCell>
        <mxCell id="zZnXeD6LMVea68qLVW7M-58" value="" style="shape=image;html=1;verticalAlign=top;verticalLabelPosition=bottom;labelBackgroundColor=#ffffff;imageAspect=0;aspect=fixed;image=https://cdn3.iconfinder.com/data/icons/social-media-2169/24/social_media_social_media_logo_docker-128.png;fontFamily=Helvetica;fontSize=17;" vertex="1" parent="zZnXeD6LMVea68qLVW7M-51">
          <mxGeometry x="137.82239382239382" y="185" width="53.18146718146718" height="53.18146718146718" as="geometry" />
        </mxCell>
        <mxCell id="zZnXeD6LMVea68qLVW7M-63" value="" style="aspect=fixed;perimeter=ellipsePerimeter;html=1;align=center;shadow=0;dashed=0;spacingTop=3;image;image=img/lib/active_directory/database_server.svg;fontFamily=Helvetica;fontSize=17;" vertex="1" parent="zZnXeD6LMVea68qLVW7M-51">
          <mxGeometry x="30.710424710424707" y="103" width="30.710424710424707" height="37.45173745173745" as="geometry" />
        </mxCell>
        <mxCell id="zZnXeD6LMVea68qLVW7M-60" value="" style="shape=image;html=1;verticalAlign=top;verticalLabelPosition=bottom;labelBackgroundColor=#ffffff;imageAspect=0;aspect=fixed;image=https://cdn3.iconfinder.com/data/icons/social-media-2169/24/social_media_social_media_logo_docker-128.png;fontFamily=Helvetica;fontSize=17;" vertex="1" parent="1">
          <mxGeometry x="1007" y="308" width="71" height="71" as="geometry" />
        </mxCell>
        <mxCell id="zZnXeD6LMVea68qLVW7M-61" value="" style="shape=image;html=1;verticalAlign=top;verticalLabelPosition=bottom;labelBackgroundColor=#ffffff;imageAspect=0;aspect=fixed;image=https://cdn3.iconfinder.com/data/icons/social-media-2169/24/social_media_social_media_logo_docker-128.png;fontFamily=Helvetica;fontSize=17;" vertex="1" parent="1">
          <mxGeometry x="648" y="354" width="63" height="63" as="geometry" />
        </mxCell>
        <mxCell id="zZnXeD6LMVea68qLVW7M-64" style="edgeStyle=none;rounded=0;orthogonalLoop=1;jettySize=auto;html=1;exitX=0;exitY=0.5;exitDx=0;exitDy=0;entryX=1;entryY=0.5;entryDx=0;entryDy=0;fontFamily=Helvetica;fontSize=17;startArrow=classic;startFill=1;" edge="1" parent="1" source="zZnXeD6LMVea68qLVW7M-16" target="zZnXeD6LMVea68qLVW7M-53">
          <mxGeometry relative="1" as="geometry" />
        </mxCell>
        <mxCell id="zZnXeD6LMVea68qLVW7M-65" style="edgeStyle=none;rounded=0;orthogonalLoop=1;jettySize=auto;html=1;exitX=0.5;exitY=1;exitDx=0;exitDy=0;fontFamily=Helvetica;fontSize=17;startArrow=classic;startFill=1;" edge="1" parent="1" source="zZnXeD6LMVea68qLVW7M-17">
          <mxGeometry relative="1" as="geometry">
            <mxPoint x="-31" y="485" as="targetPoint" />
          </mxGeometry>
        </mxCell>
        <mxCell id="zZnXeD6LMVea68qLVW7M-70" value="RASPBERRY PI" style="text;html=1;strokeColor=none;fillColor=none;align=center;verticalAlign=middle;whiteSpace=wrap;rounded=0;dashed=1;fontFamily=Lucida Console;fontSize=22;fontStyle=1" vertex="1" parent="1">
          <mxGeometry x="-230" y="165" width="147" height="47" as="geometry" />
        </mxCell>
        <mxCell id="zZnXeD6LMVea68qLVW7M-71" value="" style="rounded=0;whiteSpace=wrap;html=1;fontFamily=Helvetica;fontSize=17;dashed=1;fillColor=#fff2cc;strokeColor=#d6b656;" vertex="1" parent="1">
          <mxGeometry x="-254" y="889" width="643" height="165" as="geometry" />
        </mxCell>
        <mxCell id="zZnXeD6LMVea68qLVW7M-74" value="" style="rounded=1;whiteSpace=wrap;html=1;" vertex="1" parent="1">
          <mxGeometry x="-51" y="937" width="220" height="71" as="geometry" />
        </mxCell>
        <mxCell id="zZnXeD6LMVea68qLVW7M-75" value="SNSR CX1" style="text;html=1;strokeColor=none;fillColor=none;align=center;verticalAlign=middle;whiteSpace=wrap;rounded=0;fontFamily=Helvetica;fontSize=17;" vertex="1" parent="1">
          <mxGeometry x="-31" y="972" width="180" height="20" as="geometry" />
        </mxCell>
        <mxCell id="zZnXeD6LMVea68qLVW7M-79" value="" style="html=1;dashed=0;whitespace=wrap;fillColor=#2875E2;strokeColor=#ffffff;points=[[0.005,0.63,0],[0.1,0.2,0],[0.9,0.2,0],[0.5,0,0],[0.995,0.63,0],[0.72,0.99,0],[0.5,1,0],[0.28,0.99,0]];shape=mxgraph.kubernetes.icon;prIcon=api" vertex="1" parent="1">
          <mxGeometry x="21" y="907" width="76" height="60" as="geometry" />
        </mxCell>
        <mxCell id="zZnXeD6LMVea68qLVW7M-80" style="edgeStyle=none;rounded=0;orthogonalLoop=1;jettySize=auto;html=1;exitX=0.5;exitY=1;exitDx=0;exitDy=0;entryX=0.5;entryY=0;entryDx=0;entryDy=0;entryPerimeter=0;fontFamily=Helvetica;fontSize=17;startArrow=classic;startFill=1;" edge="1" parent="1" source="zZnXeD6LMVea68qLVW7M-16" target="zZnXeD6LMVea68qLVW7M-79">
          <mxGeometry relative="1" as="geometry" />
        </mxCell>
        <mxCell id="zZnXeD6LMVea68qLVW7M-82" value="Azure/AWS" style="text;html=1;strokeColor=none;fillColor=none;align=center;verticalAlign=middle;whiteSpace=wrap;rounded=0;dashed=1;fontFamily=Lucida Console;fontSize=22;fontStyle=1" vertex="1" parent="1">
          <mxGeometry x="463" y="748" width="147" height="47" as="geometry" />
        </mxCell>
        <mxCell id="zZnXeD6LMVea68qLVW7M-83" value="" style="outlineConnect=0;dashed=0;verticalLabelPosition=bottom;verticalAlign=top;align=center;html=1;shape=mxgraph.aws3.ec2;fillColor=#F58534;gradientColor=none;fontFamily=Lucida Console;fontSize=22;" vertex="1" parent="1">
          <mxGeometry x="503" y="644" width="76.5" height="93" as="geometry" />
        </mxCell>
      </root>
    </mxGraphModel>
  </diagram>
</mxfile>
